{
	"accessors": [
		{
			"bufferView": 2,
			"componentType": 5126,
			"count": 480,
			"max": [0.5, 0.4000000059604645, 1.100000023841858],
			"min": [-0.4000000059604645, -0.30000001192092896, 0.0],
			"type": "VEC3"
		},
		{
			"bufferView": 2,
			"byteOffset": 5760,
			"componentType": 5126,
			"count": 480,
			"max": [1.0, 1.0, 1.0],
			"min": [-1.0, -1.0, -1.0],
			"type": "VEC3"
		},
		{
			"bufferView": 1,
			"componentType": 5126,
			"count": 480,
			"max": [0.8769530057907104, 0.5],
			"min": [0.0019531298894435167, 0.5],
			"type": "VEC2"
		},
		{
			"bufferView": 0,
			"componentType": 5125,
			"count": 900,
			"type": "SCALAR"
		}
	],
	"asset": {
		"extras": {
			"author": "VoxelPerlers (https://sketchfab.com/VoxelPerlers)",
			"license": "CC-BY-NC-ND-4.0 (http://creativecommons.org/licenses/by-nc-nd/4.0/)",
			"source": "https://sketchfab.com/3d-models/voxel-alien-2eba8fe0788947b7836250594f8aa39e",
			"title": "Voxel Alien"
		},
		"generator": "Sketchfab-12.67.0",
		"version": "2.0"
	},
	"bufferViews": [
		{
			"buffer": 0,
			"byteLength": 3600,
			"name": "floatBufferViews",
			"target": 34963
		},
		{
			"buffer": 0,
			"byteLength": 3840,
			"byteOffset": 3600,
			"byteStride": 8,
			"name": "floatBufferViews",
			"target": 34962
		},
		{
			"buffer": 0,
			"byteLength": 11520,
			"byteOffset": 7440,
			"byteStride": 12,
			"name": "floatBufferViews",
			"target": 34962
		}
	],
	"buffers": [
		{
			"byteLength": 18960,
			"uri": "scene.bin"
		}
	],
	"images": [
		{
			"uri": "textures/palette_baseColor.png"
		}
	],
	"materials": [
		{
			"doubleSided": true,
			"name": "palette",
			"pbrMetallicRoughness": {
				"baseColorTexture": {
					"index": 0
				},
				"metallicFactor": 0.0
			}
		}
	],
	"meshes": [
		{
			"name": "Object_0",
			"primitives": [
				{
					"attributes": {
						"NORMAL": 1,
						"POSITION": 0,
						"TEXCOORD_0": 2
					},
					"indices": 3,
					"material": 0,
					"mode": 4
				}
			]
		}
	],
	"nodes": [
		{
			"children": [1],
			"matrix": [
				1.0, 0.0, 0.0, 0.0, 0.0, 2.220446049250313e-16, -1.0, 0.0, 0.0, 1.0, 2.220446049250313e-16,
				0.0, 0.0, 0.0, 0.0, 1.0
			],
			"name": "Sketchfab_model"
		},
		{
			"children": [2],
			"name": "VoxelAlien.obj.cleaner.materialmerger.gles"
		},
		{
			"mesh": 0,
			"name": "Object_2"
		}
	],
	"samplers": [
		{
			"magFilter": 9729,
			"minFilter": 9987,
			"wrapS": 10497,
			"wrapT": 10497
		}
	],
	"scene": 0,
	"scenes": [
		{
			"name": "Sketchfab_Scene",
			"nodes": [0]
		}
	],
	"textures": [
		{
			"sampler": 0,
			"source": 0
		}
	]
}
